<svg width="19" height="19" viewBox="0 0 19 19" fill="none" xmlns="http://www.w3.org/2000/svg">
<path fill-rule="evenodd" clip-rule="evenodd" d="M6.41699 2.02094C6.5511 1.75273 6.82522 1.58331 7.12508 1.58331H11.8751C12.1749 1.58331 12.4491 1.75273 12.5832 2.02094L13.5519 3.95831H16.2292C17.3223 3.95831 18.2084 4.84442 18.2084 5.93748V15.4375C18.2084 16.5305 17.3223 17.4166 16.2292 17.4166H2.77091C1.67785 17.4166 0.791748 16.5305 0.791748 15.4375V5.93748C0.791748 4.84442 1.67785 3.95831 2.77091 3.95831H5.44831L6.41699 2.02094ZM7.21853 3.95831H11.7816L11.3858 3.16665H7.61436L7.21853 3.95831ZM2.77091 5.54165C2.5523 5.54165 2.37508 5.71887 2.37508 5.93748V15.4375C2.37508 15.6561 2.5523 15.8333 2.77091 15.8333H16.2292C16.4479 15.8333 16.6251 15.6561 16.6251 15.4375V5.93748C16.6251 5.71887 16.4479 5.54165 16.2292 5.54165H2.77091ZM5.54175 10.6875C5.54175 8.50134 7.31395 6.72915 9.50008 6.72915C11.6862 6.72915 13.4584 8.50134 13.4584 10.6875C13.4584 12.8736 11.6862 14.6458 9.50008 14.6458C7.31395 14.6458 5.54175 12.8736 5.54175 10.6875ZM9.50008 8.31248C8.1884 8.31248 7.12508 9.37579 7.12508 10.6875C7.12508 11.9992 8.1884 13.0625 9.50008 13.0625C10.8118 13.0625 11.8751 11.9992 11.8751 10.6875C11.8751 9.37579 10.8118 8.31248 9.50008 8.31248Z" fill="#E94057"/>
</svg>
