<svg width="19" height="19" viewBox="0 0 19 19" fill="none" xmlns="http://www.w3.org/2000/svg">
<path d="M6.33342 9.49999C6.77064 9.49999 7.12508 9.85443 7.12508 10.2917V11.0833H7.91675C8.35397 11.0833 8.70842 11.4378 8.70842 11.875C8.70842 12.3122 8.35397 12.6667 7.91675 12.6667H7.12508V13.4583C7.12508 13.8955 6.77064 14.25 6.33342 14.25C5.89619 14.25 5.54175 13.8955 5.54175 13.4583V12.6667H4.75008C4.31286 12.6667 3.95842 12.3122 3.95842 11.875C3.95842 11.4378 4.31286 11.0833 4.75008 11.0833H5.54175V10.2917C5.54175 9.85443 5.89619 9.49999 6.33342 9.49999Z" fill="#E94057"/>
<path fill-rule="evenodd" clip-rule="evenodd" d="M12.6667 9.49999C11.3551 9.49999 10.2917 10.5633 10.2917 11.875C10.2917 13.1867 11.3551 14.25 12.6667 14.25C13.9784 14.25 15.0417 13.1867 15.0417 11.875C15.0417 10.5633 13.9784 9.49999 12.6667 9.49999ZM11.8751 11.875C11.8751 11.4378 12.2295 11.0833 12.6667 11.0833C13.104 11.0833 13.4584 11.4378 13.4584 11.875C13.4584 12.3122 13.104 12.6667 12.6667 12.6667C12.2295 12.6667 11.8751 12.3122 11.8751 11.875Z" fill="#E94057"/>
<path fill-rule="evenodd" clip-rule="evenodd" d="M12.6667 0.791656C13.104 0.791656 13.4584 1.1461 13.4584 1.58332V3.84523C13.4584 4.28245 13.104 4.63689 12.6667 4.63689H10.2917V6.33332H12.6667C15.7273 6.33332 18.2084 8.81441 18.2084 11.875C18.2084 14.9356 15.7273 17.4167 12.6667 17.4167H6.33342C3.27284 17.4167 0.791748 14.9356 0.791748 11.875C0.791748 8.81441 3.27284 6.33332 6.33342 6.33332H8.70842V3.84523C8.70842 3.408 9.06286 3.05356 9.50008 3.05356H11.8751V1.58332C11.8751 1.1461 12.2295 0.791656 12.6667 0.791656ZM6.33342 7.91666C4.14729 7.91666 2.37508 9.68886 2.37508 11.875C2.37508 14.0611 4.14729 15.8333 6.33342 15.8333H12.6667C14.8529 15.8333 16.6251 14.0611 16.6251 11.875C16.6251 9.68886 14.8529 7.91666 12.6667 7.91666H6.33342Z" fill="#E94057"/>
</svg>
