<svg width="19" height="19" viewBox="0 0 19 19" fill="none" xmlns="http://www.w3.org/2000/svg">
<path fill-rule="evenodd" clip-rule="evenodd" d="M5.29725 1.11768C5.44623 0.912846 5.68422 0.791656 5.9375 0.791656H12.2708C12.5241 0.791656 12.7621 0.912849 12.9111 1.11769C12.2315 1.61195 12.2645 1.58792 12.9111 1.11769L12.913 1.12032L12.9159 1.12441L12.9249 1.13694C12.9322 1.14721 12.942 1.16129 12.9543 1.17906C12.9788 1.21457 13.0128 1.26485 13.0543 1.32882C13.1374 1.45667 13.251 1.63985 13.3796 1.86974C13.6359 2.32792 13.9564 2.98017 14.2106 3.75619C14.4568 4.50736 14.6458 5.38968 14.6458 6.33332C14.6458 7.10959 14.4804 7.85452 14.1832 8.53139C13.4319 10.243 11.8286 11.5366 9.89583 11.8179V16.625H13.0625C13.4997 16.625 13.8542 16.9794 13.8542 17.4167C13.8542 17.8539 13.4997 18.2083 13.0625 18.2083H5.14583C4.70861 18.2083 4.35417 17.8539 4.35417 17.4167C4.35417 16.9794 4.70861 16.625 5.14583 16.625H8.3125V11.8189C6.46383 11.5544 4.91052 10.3775 4.12171 8.76177C3.76331 8.02754 3.5625 7.20272 3.5625 6.33332C3.5625 5.27839 3.7988 4.29933 4.08793 3.49315C4.34001 2.79034 4.63768 2.20382 4.87244 1.7923C4.99018 1.58591 5.09308 1.42184 5.16803 1.3073C5.20553 1.24999 5.23612 1.20494 5.25818 1.17307C5.26921 1.15713 5.27811 1.14447 5.28469 1.13521L5.29279 1.12386L5.29549 1.12012L5.29649 1.11874L5.29725 1.11768ZM6.36654 2.37499C6.33013 2.43492 6.29021 2.50239 6.24772 2.57688C6.04681 2.92905 5.79229 3.43108 5.57832 4.02766M6.36654 2.37499H11.8418C11.8887 2.45213 11.9413 2.54175 11.9978 2.64272C12.218 3.03638 12.4913 3.59381 12.706 4.24918C12.8617 4.7244 12.9839 5.24269 13.0356 5.78145C12.785 5.85681 12.4611 5.93931 12.0979 5.99666C11.2309 6.13355 10.2667 6.10763 9.51148 5.65448C8.28757 4.92013 6.87671 4.94605 5.86351 5.10603C5.64538 5.14047 5.43976 5.18206 5.25099 5.22625C5.32902 4.80373 5.44473 4.40015 5.57832 4.02766M5.54454 8.06714C5.36567 7.70069 5.24163 7.30227 5.18346 6.88198L5.54454 8.06714ZM5.18346 6.88198C5.43256 6.8075 5.75238 6.72653 6.11045 6.66999C6.97745 6.53309 7.94159 6.55901 8.69686 7.01217C9.92076 7.74651 11.3316 7.72059 12.3448 7.56062C12.5396 7.52986 12.7245 7.4934 12.8962 7.45448C12.8507 7.60488 12.7962 7.75192 12.7334 7.89496C12.1186 9.29571 10.7182 10.2917 9.10417 10.2917C7.54126 10.2917 6.18838 9.3859 5.54454 8.06714" fill="#E94057"/>
</svg>
