<svg width="19" height="19" viewBox="0 0 19 19" fill="none" xmlns="http://www.w3.org/2000/svg">
<path fill-rule="evenodd" clip-rule="evenodd" d="M16.7192 0.96167C16.9096 1.11179 17.0208 1.34089 17.0208 1.58336V4.78336C17.021 4.7946 17.021 4.80581 17.0208 4.81699V13.6167C17.0208 14.8409 16.0283 15.8334 14.8041 15.8334H13.2603C12.058 15.8334 11.0833 14.8587 11.0833 13.6563C11.0833 12.4539 12.058 11.4792 13.2603 11.4792H15.4374V5.80049L7.12492 7.76856V15.2C7.12492 16.4243 6.13247 17.4167 4.90825 17.4167H3.76034C2.55796 17.4167 1.58325 16.442 1.58325 15.2396C1.58325 14.0372 2.55796 13.0625 3.76034 13.0625H5.54159V7.15857C5.54135 7.14734 5.54135 7.13615 5.54159 7.12498V3.95836C5.54159 3.5923 5.79255 3.27398 6.1485 3.18855L16.0443 0.813554C16.2801 0.756968 16.5288 0.81155 16.7192 0.96167ZM7.12492 6.14146L15.4374 4.17339V2.58751L7.12492 4.58251V6.14146ZM5.54159 14.6459H3.76034C3.43242 14.6459 3.16659 14.9117 3.16659 15.2396C3.16659 15.5675 3.43242 15.8334 3.76034 15.8334H4.90825C5.25802 15.8334 5.54159 15.5498 5.54159 15.2V14.6459ZM15.4374 13.0625H13.2603C12.9324 13.0625 12.6666 13.3284 12.6666 13.6563C12.6666 13.9842 12.9324 14.25 13.2603 14.25H14.8041C15.1539 14.25 15.4374 13.9665 15.4374 13.6167V13.0625Z" fill="#E94057"/>
</svg>
