<svg width="19" height="19" viewBox="0 0 19 19" fill="none" xmlns="http://www.w3.org/2000/svg">
<path fill-rule="evenodd" clip-rule="evenodd" d="M0.791748 9.50002C0.791748 4.69054 4.6906 0.791687 9.50008 0.791687C14.3096 0.791687 18.2084 4.69054 18.2084 9.50002C18.2084 9.70998 18.125 9.91135 17.9765 10.0598L10.0599 17.9765C9.75071 18.2856 9.24945 18.2856 8.94029 17.9765L1.02362 10.0598C0.875156 9.91135 0.791748 9.70998 0.791748 9.50002ZM2.58488 7.77678C2.61007 7.7619 2.63511 7.74735 2.66002 7.73312C3.12353 7.46825 3.61781 7.26896 4.10235 7.26896C4.5869 7.26896 5.08118 7.46825 5.54469 7.73312C5.8705 7.91929 6.22054 8.16106 6.59345 8.45291C7.49336 7.70311 8.46391 7.26896 9.50008 7.26896C10.5363 7.26896 11.5068 7.70311 12.4067 8.45291C12.7796 8.16106 13.1297 7.91929 13.4555 7.73312C13.919 7.46825 14.4133 7.26896 14.8978 7.26896C15.3824 7.26896 15.8766 7.46825 16.3401 7.73312C16.365 7.74735 16.3901 7.76191 16.4153 7.77679C15.6447 4.67433 12.8409 2.37502 9.50008 2.37502C6.15926 2.37502 3.35547 4.67433 2.58488 7.77678ZM16.2344 9.56283C15.9804 9.3725 15.7541 9.22183 15.5546 9.10783C15.1785 8.8929 14.973 8.85229 14.8978 8.85229C14.8226 8.85229 14.6172 8.8929 14.241 9.10783C13.9165 9.29331 13.5208 9.57584 13.051 9.96832L11.4636 14.3336L16.2344 9.56283ZM9.50008 15.1001L11.4558 9.72197C10.7305 9.0989 10.0804 8.85229 9.50008 8.85229C8.91976 8.85229 8.2697 9.0989 7.54438 9.72197L9.50008 15.1001ZM5.9492 9.96832C5.47934 9.57584 5.08371 9.29331 4.75914 9.10783C4.383 8.8929 4.17757 8.85229 4.10235 8.85229C4.02714 8.85229 3.82171 8.8929 3.44557 9.10783C3.24607 9.22183 3.01973 9.3725 2.76581 9.56283L7.53657 14.3336L5.9492 9.96832Z" fill="#E94057"/>
</svg>
