<svg width="19" height="19" viewBox="0 0 19 19" fill="none" xmlns="http://www.w3.org/2000/svg">
<path fill-rule="evenodd" clip-rule="evenodd" d="M0.791748 9.50002C0.791748 4.69054 4.6906 0.791687 9.50008 0.791687C14.3096 0.791687 18.2084 4.69054 18.2084 9.50002C18.2084 10.3668 17.7096 10.9302 17.1218 11.2708C16.5789 11.5853 15.8887 11.7579 15.2775 11.8902C15.0826 11.9324 14.8939 11.9709 14.7108 12.0083C14.2727 12.0977 13.8667 12.1806 13.4841 12.2918C12.9354 12.4514 12.6208 12.623 12.4677 12.7958L11.8751 12.2709L12.4677 12.7958C12.2414 13.0513 12.0962 13.4159 12.0016 13.9135C11.9341 14.2685 11.9026 14.6175 11.8684 14.9961C11.8526 15.171 11.8362 15.3522 11.8154 15.5432C11.7572 16.079 11.6603 16.7362 11.3352 17.2602C11.1608 17.5414 10.918 17.7909 10.5871 17.9641C10.2607 18.135 9.89311 18.2084 9.50008 18.2084C4.6906 18.2084 0.791748 14.3095 0.791748 9.50002ZM9.50008 2.37502C5.56505 2.37502 2.37508 5.56499 2.37508 9.50002C2.37508 13.4351 5.56505 16.625 9.50008 16.625C9.69686 16.625 9.80047 16.5888 9.85285 16.5613C9.9008 16.5362 9.9443 16.4988 9.98978 16.4255C10.1046 16.2405 10.182 15.9182 10.2414 15.3722C10.2556 15.241 10.2689 15.0947 10.283 14.939C10.3203 14.5282 10.3635 14.0523 10.4461 13.6177C10.5642 12.9969 10.7836 12.309 11.2825 11.7459C11.7482 11.2203 12.4357 10.9478 13.042 10.7715C13.491 10.6409 13.997 10.5376 14.4593 10.4432C14.6278 10.4089 14.7905 10.3757 14.9425 10.3427C15.562 10.2086 16.0252 10.0762 16.328 9.90078C16.5859 9.75136 16.6251 9.63978 16.6251 9.50002C16.6251 5.56499 13.4351 2.37502 9.50008 2.37502ZM9.10425 5.54169C9.10425 4.44861 9.99033 3.56252 11.0834 3.56252C12.1765 3.56252 13.0626 4.44861 13.0626 5.54169C13.0626 6.63477 12.1765 7.52085 11.0834 7.52085C9.99033 7.52085 9.10425 6.63477 9.10425 5.54169ZM11.0834 5.14585C10.8648 5.14585 10.6876 5.32306 10.6876 5.54169C10.6876 5.76032 10.8648 5.93752 11.0834 5.93752C11.302 5.93752 11.4792 5.76032 11.4792 5.54169C11.4792 5.32306 11.302 5.14585 11.0834 5.14585ZM4.35425 7.12502C4.35425 6.03194 5.24033 5.14585 6.33342 5.14585C7.4265 5.14585 8.31258 6.03194 8.31258 7.12502C8.31258 8.2181 7.4265 9.10419 6.33342 9.10419C5.24033 9.10419 4.35425 8.2181 4.35425 7.12502ZM6.33342 6.72919C6.11478 6.72919 5.93758 6.90639 5.93758 7.12502C5.93758 7.34365 6.11478 7.52085 6.33342 7.52085C6.55205 7.52085 6.72925 7.34365 6.72925 7.12502C6.72925 6.90639 6.55205 6.72919 6.33342 6.72919ZM4.75008 12.2709C4.75008 11.1778 5.63617 10.2917 6.72925 10.2917C7.82233 10.2917 8.70842 11.1778 8.70842 12.2709C8.70842 13.3639 7.82233 14.25 6.72925 14.25C5.63617 14.25 4.75008 13.3639 4.75008 12.2709ZM6.72925 11.875C6.51062 11.875 6.33342 12.0522 6.33342 12.2709C6.33342 12.4895 6.51062 12.6667 6.72925 12.6667C6.94788 12.6667 7.12508 12.4895 7.12508 12.2709C7.12508 12.0522 6.94788 11.875 6.72925 11.875Z" fill="#E94057"/>
</svg>
