<svg width="19" height="19" viewBox="0 0 19 19" fill="none" xmlns="http://www.w3.org/2000/svg">
<path d="M5.54162 12.2708C6.59218 12.2708 7.39658 12.464 8.62597 12.9854L9.0786 13.1833L9.57309 13.4098L10.3003 13.7497L10.719 13.9383C10.7855 13.9675 10.8504 13.9957 10.9139 14.0229L11.2779 14.1736C12.1489 14.5202 12.744 14.6458 13.4583 14.6458C14.209 14.6458 15.0436 14.4455 15.8856 14.1087C16.1859 13.9886 16.465 13.8598 16.7144 13.7315L16.9271 13.6183L17.0093 13.5711C17.3842 13.3462 17.8705 13.4678 18.0955 13.8427C18.3204 14.2176 18.1988 14.7039 17.8239 14.9288L17.6093 15.0512L17.3427 15.1902C17.1 15.3117 16.807 15.4454 16.4737 15.5788C15.4602 15.9841 14.4394 16.2291 13.4583 16.2291C12.4077 16.2291 11.6033 16.036 10.3739 15.5145L9.92131 15.3166L9.42682 15.0902L8.69961 14.7503L8.28087 14.5617C8.21439 14.5324 8.14949 14.5042 8.08605 14.4771L7.72199 14.3264C6.85099 13.9798 6.25593 13.8541 5.54162 13.8541C4.79095 13.8541 3.95634 14.0545 3.11429 14.3913C2.81398 14.5114 2.53491 14.6402 2.28553 14.7685L2.07285 14.8817L1.9906 14.9288C1.61568 15.1538 1.12939 15.0322 0.904442 14.6573C0.679491 14.2824 0.801063 13.7961 1.17598 13.5711L1.39059 13.4488L1.65719 13.3097C1.89996 13.1883 2.19294 13.0545 2.52625 12.9212C3.53967 12.5158 4.56053 12.2708 5.54162 12.2708Z" fill="#E94057"/>
<path d="M5.54162 7.52081C6.59218 7.52081 7.39658 7.714 8.62597 8.23544L9.0786 8.43333L9.57309 8.65979L10.3003 8.9997L10.719 9.18828C10.7855 9.21754 10.8504 9.24573 10.9139 9.27289L11.2779 9.42356C12.1489 9.7702 12.744 9.89581 13.4583 9.89581C14.209 9.89581 15.0436 9.69551 15.8856 9.35869C16.1859 9.23856 16.465 9.10976 16.7144 8.98151L16.9271 8.86826L17.0093 8.82113C17.3842 8.59618 17.8705 8.71775 18.0955 9.09267C18.3204 9.46759 18.1988 9.95388 17.8239 10.1788L17.6093 10.3012L17.3427 10.4402C17.1 10.5617 16.807 10.6954 16.4737 10.8288C15.4602 11.2341 14.4394 11.4791 13.4583 11.4791C12.4077 11.4791 11.6033 11.286 10.3739 10.7645L9.92131 10.5666L9.42682 10.3402L8.69961 10.0003L8.28087 9.81167C8.21439 9.78242 8.14949 9.75423 8.08605 9.72707L7.72199 9.5764C6.85099 9.22976 6.25593 9.10415 5.54162 9.10415C4.79095 9.10415 3.95634 9.30445 3.11429 9.64127C2.81398 9.76139 2.53491 9.8902 2.28553 10.0185L2.07285 10.1317L1.9906 10.1788C1.61568 10.4038 1.12939 10.2822 0.904442 9.90729C0.679491 9.53237 0.801063 9.04608 1.17598 8.82113L1.39059 8.69876L1.65719 8.55972C1.89996 8.43826 2.19294 8.30451 2.52625 8.17119C3.53967 7.76582 4.56053 7.52081 5.54162 7.52081Z" fill="#E94057"/>
<path d="M5.54162 2.77081C6.59218 2.77081 7.39658 2.964 8.62597 3.48544L9.0786 3.68333L9.57309 3.90979L10.3003 4.2497L10.719 4.43828C10.7855 4.46754 10.8504 4.49573 10.9139 4.52289L11.2779 4.67356C12.1489 5.0202 12.744 5.14581 13.4583 5.14581C14.209 5.14581 15.0436 4.94551 15.8856 4.60869C16.1859 4.48856 16.465 4.35976 16.7144 4.23151L16.9271 4.11826L17.0093 4.07113C17.3842 3.84618 17.8705 3.96775 18.0955 4.34267C18.3204 4.71759 18.1988 5.20388 17.8239 5.42883L17.6093 5.5512L17.3427 5.69024C17.1 5.8117 16.807 5.94545 16.4737 6.07877C15.4602 6.48414 14.4394 6.72915 13.4583 6.72915C12.4077 6.72915 11.6033 6.53596 10.3739 6.01452L9.92131 5.81663L9.42682 5.59017L8.69961 5.25026L8.28087 5.06167C8.21439 5.03242 8.14949 5.00423 8.08605 4.97707L7.72199 4.8264C6.85099 4.47976 6.25593 4.35415 5.54162 4.35415C4.79095 4.35415 3.95634 4.55445 3.11429 4.89127C2.81398 5.0114 2.53491 5.1402 2.28553 5.26845L2.07285 5.3817L1.9906 5.42883C1.61568 5.65378 1.12939 5.53221 0.904442 5.15729C0.679491 4.78237 0.801063 4.29608 1.17598 4.07113L1.39059 3.94876L1.65719 3.80972C1.89996 3.68826 2.19294 3.55451 2.52625 3.42119C3.53967 3.01582 4.56053 2.77081 5.54162 2.77081Z" fill="#E94057"/>
</svg>
