<svg width="20" height="20" viewBox="0 0 20 20" fill="none" xmlns="http://www.w3.org/2000/svg">
<path fill-rule="evenodd" clip-rule="evenodd" d="M0.833252 8.74998C0.833252 4.37774 4.37768 0.833313 8.74992 0.833313C13.1222 0.833313 16.6666 4.37774 16.6666 8.74998C16.6666 10.6359 16.0071 12.3679 14.9062 13.7277L17.9671 16.7887C18.2926 17.1141 18.2926 17.6418 17.9671 17.9672C17.6417 18.2926 17.1141 18.2926 16.7886 17.9672L13.7277 14.9062C12.3678 16.0072 10.6359 16.6666 8.74992 16.6666C4.37768 16.6666 0.833252 13.1222 0.833252 8.74998ZM8.74992 2.49998C5.29816 2.49998 2.49992 5.29822 2.49992 8.74998C2.49992 12.2017 5.29816 15 8.74992 15C12.2017 15 14.9999 12.2017 14.9999 8.74998C14.9999 5.29822 12.2017 2.49998 8.74992 2.49998ZM5.80364 5.38699C6.55678 4.63391 7.59957 4.16665 8.74992 4.16665C9.90026 4.16665 10.9431 4.63391 11.6962 5.38702C12.0216 5.71245 12.0216 6.24009 11.6962 6.56553C11.3707 6.89096 10.8431 6.89096 10.5177 6.56553C10.0644 6.11222 9.4405 5.83331 8.74992 5.83331C8.05935 5.83331 7.43548 6.11221 6.98211 6.56555C6.65666 6.89097 6.12903 6.89095 5.8036 6.56551C5.47818 6.24006 5.47819 5.71242 5.80364 5.38699Z" fill="black" fill-opacity="0.4"/>
</svg>
