<svg width="19" height="19" viewBox="0 0 19 19" fill="none" xmlns="http://www.w3.org/2000/svg">
<path fill-rule="evenodd" clip-rule="evenodd" d="M5.93742 4.35419C5.93742 2.38668 7.5324 0.791687 9.49992 0.791687C11.4674 0.791687 13.0624 2.38668 13.0624 4.35419V9.50002C13.0624 11.4675 11.4674 13.0625 9.49992 13.0625C7.5324 13.0625 5.93742 11.4675 5.93742 9.50002V4.35419ZM9.49992 2.37502C8.40685 2.37502 7.52075 3.26112 7.52075 4.35419V9.50002C7.52075 10.5931 8.40685 11.4792 9.49992 11.4792C10.593 11.4792 11.4791 10.5931 11.4791 9.50002V4.35419C11.4791 3.26112 10.593 2.37502 9.49992 2.37502ZM3.56242 8.31252C3.99964 8.31252 4.35409 8.66696 4.35409 9.10419C4.35409 11.9462 6.65794 14.25 9.49992 14.25C12.3419 14.25 14.6458 11.9462 14.6458 9.10419C14.6458 8.66696 15.0002 8.31252 15.4374 8.31252C15.8746 8.31252 16.2291 8.66696 16.2291 9.10419C16.2291 12.5528 13.6349 15.3955 10.2916 15.7873V17.4167C10.2916 17.8539 9.93714 18.2084 9.49992 18.2084C9.06269 18.2084 8.70825 17.8539 8.70825 17.4167V15.7873C5.3649 15.3955 2.77075 12.5528 2.77075 9.10419C2.77075 8.66696 3.12519 8.31252 3.56242 8.31252Z" fill="#E94057"/>
</svg>
