<svg width="19" height="19" viewBox="0 0 19 19" fill="none" xmlns="http://www.w3.org/2000/svg">
<path fill-rule="evenodd" clip-rule="evenodd" d="M9.5 2.37502C8.40693 2.37502 7.52083 3.26112 7.52083 4.35419V4.75002H11.4792V4.35419C11.4792 3.26112 10.5931 2.37502 9.5 2.37502ZM13.0625 4.75002V4.35419C13.0625 2.38668 11.4675 0.791687 9.5 0.791687C7.53248 0.791687 5.9375 2.38668 5.9375 4.35419V4.75002H3.95833C3.08388 4.75002 2.375 5.4589 2.375 6.33335V16.625C2.375 17.4995 3.08388 18.2084 3.95833 18.2084H15.0417C15.9161 18.2084 16.625 17.4995 16.625 16.625V6.33335C16.625 5.4589 15.9161 4.75002 15.0417 4.75002H13.0625ZM11.4792 6.33335V7.12502C11.4792 7.56225 11.8336 7.91669 12.2708 7.91669C12.7081 7.91669 13.0625 7.56225 13.0625 7.12502V6.33335H15.0417V16.625H3.95833V6.33335H5.9375V7.12502C5.9375 7.56225 6.29194 7.91669 6.72917 7.91669C7.16639 7.91669 7.52083 7.56225 7.52083 7.12502V6.33335H11.4792Z" fill="white"/>
</svg>
